<?xml version="1.0" encoding="UTF-8"?> <svg xmlns="http://www.w3.org/2000/svg" width="2167" height="630" viewBox="0 0 2167 630" fill="none"><g filter="url(#filter0_d_1404_140)"><path d="M14 162H464V612H14V162Z" fill="#0179FF"></path><path d="M14 162H464V612M14 162V612H464M14 162L179.5 10H578V454L464 612" stroke="#0179FF" stroke-width="20"></path></g><path d="M789.297 480V136.25H855.703V480H789.297ZM944.539 480V202.266H903.719V136.25H1054.11V202.266H1013.29V480H944.539ZM1102.12 480V136.25H1168.53V480H1102.12ZM1309.52 483.125C1278.14 483.125 1255.48 475.312 1241.55 459.688C1227.74 444.062 1220.84 419.193 1220.84 385.078V351.484H1288.81V394.453C1288.81 402.396 1289.98 408.646 1292.33 413.203C1294.8 417.63 1299.03 419.844 1305.02 419.844C1311.27 419.844 1315.57 418.021 1317.91 414.375C1320.39 410.729 1321.62 404.74 1321.62 396.406C1321.62 385.859 1320.58 377.07 1318.5 370.039C1316.42 362.878 1312.77 356.107 1307.56 349.727C1302.48 343.216 1295.39 335.664 1286.27 327.07L1255.41 297.773C1232.37 276.029 1220.84 251.159 1220.84 223.164C1220.84 193.867 1227.61 171.536 1241.16 156.172C1254.83 140.807 1274.55 133.125 1300.34 133.125C1331.85 133.125 1354.18 141.523 1367.33 158.32C1380.61 175.117 1387.25 200.638 1387.25 234.883H1317.33V211.25C1317.33 206.562 1315.96 202.917 1313.23 200.312C1310.62 197.708 1307.04 196.406 1302.48 196.406C1297.02 196.406 1292.98 197.969 1290.38 201.094C1287.9 204.089 1286.66 207.995 1286.66 212.812C1286.66 217.63 1287.97 222.839 1290.57 228.438C1293.17 234.036 1298.32 240.482 1306 247.773L1345.65 285.859C1353.59 293.411 1360.88 301.419 1367.52 309.883C1374.16 318.216 1379.5 327.982 1383.54 339.18C1387.58 350.247 1389.59 363.789 1389.59 379.805C1389.59 412.096 1383.6 437.422 1371.62 455.781C1359.78 474.01 1339.07 483.125 1309.52 483.125ZM1440.15 479.805V421.602H1510.07V479.805H1440.15ZM1568.05 480V136.25H1662.58C1687.32 136.25 1705.94 143.151 1718.44 156.953C1730.94 170.625 1737.19 190.677 1737.19 217.109V378.047C1737.19 410.599 1731.46 435.729 1720 453.438C1708.67 471.146 1688.75 480 1660.23 480H1568.05ZM1637.19 419.258H1649.1C1661.73 419.258 1668.05 413.138 1668.05 400.898V223.555C1668.05 212.096 1666.48 204.74 1663.36 201.484C1660.36 198.099 1654.18 196.406 1644.8 196.406H1637.19V419.258ZM1797.31 480V136.25H1934.81V202.656H1867.23V269.648H1932.08V334.297H1867.23V413.008H1939.3V480H1797.31ZM2025.8 480L1983.41 136.055H2048.84L2074.04 370.039L2096.5 136.055H2161.93L2119.55 480H2025.8Z" fill="#0179FF"></path><defs><filter id="filter0_d_1404_140" x="0" y="0" width="592" height="630" filterUnits="userSpaceOnUse" color-interpolation-filters="sRGB"><feFlood flood-opacity="0" result="BackgroundImageFix"></feFlood><feColorMatrix in="SourceAlpha" type="matrix" values="0 0 0 0 0 0 0 0 0 0 0 0 0 0 0 0 0 0 127 0" result="hardAlpha"></feColorMatrix><feOffset dy="4"></feOffset><feGaussianBlur stdDeviation="2"></feGaussianBlur><feComposite in2="hardAlpha" operator="out"></feComposite><feColorMatrix type="matrix" values="0 0 0 0 0 0 0 0 0 0 0 0 0 0 0 0 0 0 0.25 0"></feColorMatrix><feBlend mode="normal" in2="BackgroundImageFix" result="effect1_dropShadow_1404_140"></feBlend><feBlend mode="normal" in="SourceGraphic" in2="effect1_dropShadow_1404_140" result="shape"></feBlend></filter></defs></svg> 