<?xml version="1.0" encoding="UTF-8"?> <svg xmlns="http://www.w3.org/2000/svg" width="750" height="500" viewBox="0 0 750 500" fill="none"><g clip-path="url(#clip0_205_4)"><path d="M750 0H0V500H750V0Z" fill="white"></path><path d="M671.688 370.72C645.676 410.177 601.078 433.37 553.818 433.37H161.567C82.7249 433.37 38.5139 341.187 89.6449 289.28C140.777 237.373 95.6129 193.04 174.481 151.415C250.888 111.089 276.974 197.047 347.363 140.803C417.752 84.5589 520.229 89.8649 542.744 147.17C565.259 204.475 559.953 224.642 607.707 237.375C655.461 250.107 702.154 322.269 673.502 367.901C672.905 368.852 672.3 369.792 671.688 370.72Z" fill="#BDCAE0"></path><path d="M654.251 386.715C612.928 390.22 585.073 467.677 481.773 421.12C481.773 421.12 493.116 387.306 543.928 366.23C594.74 345.154 654.251 386.715 654.251 386.715Z" fill="#CDDCF4"></path><path d="M495.879 415.32C506.663 409.713 517.85 404.879 529.274 400.674C532.117 399.582 534.999 398.6 537.89 397.643C540.768 396.645 543.684 395.763 546.595 394.862C549.496 393.927 552.449 393.167 555.392 392.37C556.865 391.978 558.332 391.562 559.811 391.191L564.26 390.123L568.72 389.1L573.212 388.216L577.703 387.334C579.201 387.048 580.713 386.824 582.222 386.595C585.243 386.15 588.252 385.643 591.295 385.352C594.333 385.037 597.355 384.599 600.413 384.485C612.582 383.601 624.887 383.802 636.886 385.832C624.732 385.538 612.681 386.257 600.729 387.73L598.487 387.985L596.254 388.328L591.787 388.98C588.803 389.363 585.849 389.961 582.887 390.496C581.41 390.786 579.92 390.993 578.446 391.3L574.024 392.218L569.603 393.137L565.209 394.19L560.805 395.197C559.34 395.547 557.886 395.944 556.426 396.315L552.049 397.447C550.588 397.817 549.149 398.27 547.691 398.652C544.783 399.45 541.869 400.23 538.987 401.126C536.1 402.005 533.195 402.827 530.319 403.75C518.783 407.344 507.349 411.3 495.879 415.32Z" fill="#B0BDD1"></path><path d="M659.308 254.901C608.888 290.942 632.213 411.723 463.954 430.74C463.954 430.74 452.722 378.637 501.924 312.777C551.126 246.918 659.308 254.901 659.308 254.901Z" fill="#DBE9FF"></path><path d="M475.148 416.189C482.487 400.289 491.544 385.169 501.735 370.856C511.896 356.513 523.288 343.016 535.697 330.517C548.12 318.04 561.581 306.535 576.149 296.602C590.671 286.674 606.339 278.131 623.048 272.807C607.539 280.94 593.167 290.606 579.518 301.207C565.918 311.868 553.06 323.43 540.877 335.675C528.686 347.916 517.198 360.856 506.263 374.293C495.361 387.767 485.116 401.79 475.148 416.189Z" fill="#CDDCF4"></path><path d="M115.408 375.95C156.382 382.356 178.713 461.582 285.035 422.415C285.035 422.415 276.101 387.886 226.9 363.284C177.698 338.683 115.408 375.95 115.408 375.95Z" fill="#CDDCF4"></path><path d="M271.373 415.637C260.214 410.819 249.088 406.068 237.834 401.67C235.03 400.547 232.19 399.522 229.372 398.442C226.561 397.345 223.708 396.362 220.864 395.361C219.436 394.877 218.033 394.324 216.601 393.852L212.315 392.415C210.885 391.942 209.462 391.444 208.026 390.991L203.704 389.676L199.395 388.317L195.05 387.089L190.704 385.861C189.255 385.452 187.783 385.14 186.33 384.746C183.414 384.004 180.509 383.199 177.559 382.607L173.149 381.642L170.946 381.143L168.728 380.731C156.909 378.419 144.938 376.854 132.794 376.291C144.906 375.111 157.195 375.777 169.271 377.516C172.313 377.845 175.296 378.494 178.305 379.023C181.32 379.528 184.286 380.246 187.268 380.902C188.757 381.237 190.249 381.566 191.724 381.958L196.142 383.154L200.56 384.352L204.937 385.686L209.3 387.065C210.749 387.539 212.183 388.058 213.625 388.552C216.504 389.555 219.396 390.521 222.225 391.658C225.066 392.762 227.912 393.847 230.713 395.045C233.53 396.203 236.335 397.386 239.094 398.675C250.192 403.674 261.011 409.284 271.373 415.637Z" fill="#B0BDD1"></path><path d="M142.646 249.353C188.048 286.907 157.843 399.887 316.136 429.186C316.136 429.186 330.276 380.527 288.025 314.776C245.773 249.025 142.646 249.353 142.646 249.353Z" fill="#DBE9FF"></path><path d="M306.493 414.638C297.937 400.348 289.129 386.389 279.675 372.901C270.184 359.447 260.152 346.42 249.415 334.002C238.687 321.58 227.281 309.754 215.123 298.718C202.911 287.736 189.963 277.581 175.834 268.763C191.358 274.863 205.678 283.988 218.808 294.361C231.983 304.739 243.993 316.55 254.945 329.221C265.881 341.912 275.778 355.488 284.433 369.791C293.12 384.065 300.665 399.035 306.493 414.638Z" fill="#CDDCF4"></path><path d="M409.65 354.532C403.966 361.281 398.815 372.471 395.618 374.248C392.421 376.024 387.03 376.642 381.936 393.038C376.842 409.435 402.561 407.19 402.561 407.19C402.561 407.19 413.558 400.874 417.999 385.615L429.011 375.846L409.65 354.532Z" fill="#F6A397"></path><path d="M389.755 405.392C389.755 405.392 398.079 402.681 405.14 395.224C412.227 387.738 413.141 374.42 413.141 374.42L416.536 380.763L423.326 373.506L426.599 373.189L429.012 375.845L418 385.614C413.56 400.873 402.562 407.189 402.562 407.189C402.562 407.189 395.472 407.804 389.474 406.018C389.628 405.631 389.755 405.392 389.755 405.392Z" fill="#D65863"></path><path d="M448.208 295.802C440.33 301.561 435.63 305.74 431.713 313.574C427.796 321.408 403.249 349.554 401.682 352.064C400.115 354.574 415.477 381.21 427.774 387.739C427.774 387.739 446.338 366.325 457.044 358.23C467.751 350.135 464.095 321.409 459.133 311.747C454.171 302.084 448.208 295.802 448.208 295.802Z" fill="#5470D3"></path><path d="M447.921 347.633V331.644C447.921 331.644 450.005 330.809 451.631 336.206C452.281 338.365 452.23 340.635 451.941 342.589L463.893 333.6C464.387 343.663 462.772 353.898 457.044 358.229C446.337 366.324 427.774 387.738 427.774 387.738C424.602 386.054 421.227 383.027 417.99 379.425C425.547 371.9 439.888 357.371 447.921 347.633Z" fill="#314EC6"></path><path d="M371.553 400.874C369.509 401.512 367.999 402.489 367.999 405.064C367.999 407.639 368.443 411.725 369.42 413.323C370.397 414.922 375.442 415.879 375.442 415.879C375.442 415.879 375.104 405.241 374.039 403.287C372.972 401.334 371.553 400.874 371.553 400.874Z" fill="#F6A397"></path><path d="M369.419 413.324C369.144 412.875 368.916 412.217 368.724 411.463C369.819 412.539 370.186 412.547 371.526 412.689L375.356 413.883C375.415 415.08 375.44 415.88 375.44 415.88C375.44 415.88 370.396 414.922 369.419 413.324Z" fill="#D65863"></path><path d="M376.435 396.983C373.948 397.249 371.462 399.114 371.462 401.69C371.462 404.266 370.574 411.459 371.462 412.614C372.35 413.769 376.702 417.055 378.212 417.321C379.722 417.587 382.286 417.143 381.936 416.344C381.586 415.544 376.435 396.983 376.435 396.983Z" fill="#F6A397"></path><path d="M371.085 410.68C372.971 412.808 377.792 412.617 377.792 412.617C377.792 412.617 379.911 414.88 380.172 415.607C380.33 416.046 381.197 416.624 381.316 417.071C380.518 417.375 379.158 417.487 378.212 417.32C376.732 417.059 372.529 413.9 371.527 412.688L371.085 410.684C371.085 410.684 371.085 410.682 371.085 410.68Z" fill="#D65863"></path><path d="M385.753 392.734C378.123 393.164 376.702 393.874 376.436 396.983C376.17 400.091 376.347 409.15 377.324 411.459C378.301 413.768 378.834 415.811 380.077 417.054C381.32 418.297 383.18 418.302 383.18 418.302C383.18 418.302 387.359 412.17 387.537 407.019C387.714 401.867 385.753 392.734 385.753 392.734Z" fill="#F6A397"></path><path d="M381.364 413.199C381.751 411.089 382.609 408.841 382.718 401.782C382.759 399.13 385.218 412.98 384.12 416.78C383.573 417.723 383.18 418.301 383.18 418.301C383.18 418.301 381.32 418.297 380.077 417.053C378.834 415.81 378.301 413.767 377.324 411.458C377.26 411.308 377.201 411.127 377.144 410.923C377.641 412.219 379.223 413.069 381.364 413.199Z" fill="#D65863"></path><path d="M402.457 408.35C401.977 412.594 396.418 414.123 395.796 416.254C395.174 418.385 395.618 420.339 394.553 420.872C393.487 421.405 389.047 418.918 389.224 416.076C389.224 416.076 388.069 418.474 385.494 418.918C382.918 419.362 382.297 417.481 382.741 414.647C383.185 411.813 383.096 410.303 383.007 406.929C382.918 403.554 382.119 400.446 383.629 396.716C385.139 392.986 387.181 389.7 391.267 390.322C395.352 390.944 397.839 396.095 400.059 397.871C402.279 399.647 402.99 403.643 402.457 408.35Z" fill="#F6A397"></path><path d="M389.224 416.077C389.473 410.68 389.755 406.263 389.755 405.392C389.755 404.521 389.473 398.793 391.51 398.445C391.819 398.392 396.298 401.23 396.385 403.146C396.472 405.061 396.385 408.499 394.992 409.479C393.598 410.458 389.224 416.077 389.224 416.077Z" fill="#D65863"></path><path d="M574.296 307.307C566.201 297.035 563.415 295.991 555.059 291.116C546.702 286.241 515.017 273.881 508.489 272.314C501.96 270.747 475.63 283.021 466.99 286.938C458.35 290.855 447.357 294.709 445.483 298.527C439.213 311.306 451.631 329.417 451.697 367.369C451.731 387.247 456.261 431.946 456.261 431.946C456.261 431.946 555.756 432.132 557.149 430.043C558.542 427.954 562.024 356.575 563.764 341.951C565.504 327.328 574.296 307.307 574.296 307.307Z" fill="#5470D3"></path><path d="M445.848 318.536C445.102 316.133 444.659 313.687 444.287 311.23C443.946 308.769 443.678 306.297 443.715 303.781C444.463 306.183 444.906 308.63 445.276 311.087C445.615 313.548 445.882 316.02 445.848 318.536Z" fill="#314EC6"></path><path d="M483.054 303.585C479.21 302.149 470.102 304.646 468.437 305.226C466.772 305.805 469.416 298.689 470.395 297.808C471.374 296.927 472.941 294.875 475.944 295.803C478.947 296.731 481.471 300.169 481.907 301.301C482.343 302.432 483.054 303.585 483.054 303.585Z" fill="#314EC6"></path><path d="M515.084 309.526C513.713 309.461 505.716 305.783 503.8 304.869C501.884 303.955 493.21 303.528 487.385 305.156C487.385 305.156 498.599 297.579 505.128 297.644C511.657 297.709 514.137 300.06 514.66 302.149C515.182 304.238 515.084 309.526 515.084 309.526Z" fill="#314EC6"></path><path d="M472.313 415.942C473.381 414.897 538.358 416.987 539.664 410.197C540.97 403.407 541.868 391.059 541.868 391.059C534.046 395.237 522.689 393.498 522.689 393.498C530.262 391.025 541.23 378.599 541.752 374.943C543.361 363.68 537.344 332.629 537.344 332.629L541.752 323.759L546.91 320.886C546.91 320.886 556.69 325.757 565.054 334.717C564.489 337.196 564.038 339.642 563.763 341.952C562.122 355.74 558.933 419.964 557.406 429.019C537.281 429.761 500.798 431.097 476.386 431.935C464.558 431.963 456.259 431.948 456.259 431.948C456.259 431.948 456.106 426.069 455.751 417.637C462.562 417.237 471.65 416.589 472.313 415.942Z" fill="#314EC6"></path><path d="M485.508 305.479C492.519 304.634 503.788 298.559 508.227 300.648C512.666 302.737 513.711 308.09 514.625 309.004C515.539 309.918 519.456 305.348 519.456 294.119C519.456 282.89 519.801 271.392 511.533 269.829C503.265 268.266 481.852 276.362 477.543 279.626C473.234 282.89 471.406 286.196 470.231 289.375C469.056 292.553 465.922 305.349 467.358 305.48C468.794 305.61 472.842 297.254 475.845 296.993C478.849 296.73 483.609 305.708 485.508 305.479Z" fill="#5470D3"></path><path d="M481.519 295.425C479.731 291.182 477.773 287.46 477.838 284.522C477.903 281.584 478.556 279.56 481.82 278.646C485.084 277.732 486.455 279.495 486.651 283.934C486.848 288.374 481.519 295.425 481.519 295.425Z" fill="#314EC6"></path><path d="M507.115 287.514C513.94 281.323 514.713 274.403 514.072 272.967C513.431 271.531 510.612 270.486 510.612 270.486C510.612 270.486 509.502 274.991 510.155 276.101C510.808 277.21 507.115 287.514 507.115 287.514Z" fill="#314EC6"></path><path d="M496.251 302.48C497.914 301.733 499.649 301.15 501.419 300.67C503.197 300.237 505.024 299.893 506.921 300.016C507.857 300.087 508.863 300.29 509.7 300.953C510.438 301.65 511.001 302.28 511.628 302.996C512.872 304.408 513.728 306.122 514.516 307.734C514.691 308.105 514.965 308.542 515.086 308.581C515.1 308.586 515.094 308.609 515.235 308.521C515.353 308.438 515.49 308.296 515.616 308.14C516.124 307.489 516.541 306.676 516.949 305.884C517.77 304.321 518.212 302.589 518.561 300.825C518.902 299.06 519.097 297.258 519.224 295.451C519.38 293.644 519.431 291.828 519.456 290.007C519.815 293.633 519.821 297.305 519.319 300.952C519.075 302.77 518.619 304.608 517.798 306.302C517.392 307.133 516.981 307.954 516.381 308.748C516.222 308.945 516.051 309.143 515.799 309.326C515.678 309.417 515.512 309.503 515.314 309.551C515.108 309.6 514.859 309.567 514.673 309.479C514.299 309.291 514.141 309.041 513.99 308.828C513.845 308.608 513.732 308.395 513.624 308.185C512.834 306.531 512.051 304.951 510.902 303.602C510.352 302.933 509.708 302.196 509.141 301.628C508.549 301.135 507.702 300.89 506.846 300.782C505.109 300.576 503.292 300.818 501.527 301.149C499.744 301.461 497.992 301.945 496.251 302.48Z" fill="#314EC6"></path><path d="M480.175 300.138C479.419 299.468 478.666 298.799 477.845 298.244C477.44 297.965 477.025 297.699 476.597 297.516C476.382 297.434 476.173 297.37 475.978 297.344C475.892 297.353 475.8 297.345 475.732 297.367C475.669 297.41 475.63 297.393 475.507 297.484C473.824 298.522 472.513 299.948 471.4 301.581C470.835 302.369 470.34 303.27 469.672 304.088C469.339 304.493 468.984 304.885 468.534 305.234C468.299 305.398 468.061 305.587 467.639 305.637C467.437 305.67 467.156 305.584 466.985 305.432C466.814 305.277 466.727 305.099 466.679 304.947C466.495 304.329 466.554 303.814 466.602 303.291C466.667 302.775 466.758 302.271 466.874 301.775C467.124 300.787 467.4 299.815 467.755 298.866C467.62 299.869 467.44 300.859 467.357 301.856C467.301 302.351 467.263 302.847 467.256 303.334C467.254 303.808 467.263 304.328 467.407 304.667C467.437 304.753 467.486 304.798 467.503 304.81C467.527 304.808 467.503 304.818 467.552 304.803C467.636 304.795 467.834 304.682 467.992 304.545C468.326 304.261 468.639 303.891 468.925 303.505C469.513 302.746 469.986 301.871 470.577 301.012C471.171 300.174 471.821 299.361 472.576 298.637C473.33 297.916 474.203 297.296 475.104 296.819C475.187 296.761 475.397 296.685 475.569 296.637C475.741 296.603 475.91 296.622 476.071 296.632C476.375 296.693 476.638 296.802 476.881 296.93C477.354 297.199 477.76 297.523 478.147 297.863C478.894 298.569 479.583 299.314 480.175 300.138Z" fill="#314EC6"></path><path d="M480.561 269.919C480.577 272.678 480.686 275.429 480.973 278.174C481.677 284.907 480.987 293.786 481.519 295.425C482.113 297.253 485.638 303.782 485.638 303.782C485.638 303.782 491.905 300.909 494.517 297.776C497.129 294.643 500.523 294.484 505.093 289.863C509.663 285.242 512.77 277.902 511.752 271.793C511.622 271.01 510.819 263.189 510.642 255.093C510.465 246.998 501.959 240.847 493.864 240.847C485.769 240.847 480.923 252.859 480.669 260.955C480.565 264.276 480.547 267.395 480.561 269.919Z" fill="#F6A397"></path><path d="M510.643 255.092C510.82 263.187 511.622 271.008 511.753 271.792C512.068 273.681 511.986 275.687 511.591 277.694C509.8 278.025 486.744 278.581 480.771 275.8C480.635 273.844 480.572 271.884 480.561 269.92C480.547 267.396 480.565 264.277 480.67 260.955C480.778 257.523 481.713 253.39 483.369 249.764L502.335 243.042C506.989 245.525 510.529 249.904 510.643 255.092Z" fill="#D65863"></path><path d="M466.359 221.383C454.109 221.383 449.525 230.792 449.525 237.845C449.525 244.174 451.554 254.307 466.359 254.307C473.762 254.307 478.773 246.937 478.773 237.845C478.773 228.754 473.762 221.383 466.359 221.383Z" fill="#0179FF"></path><path d="M465.818 225.415C456.568 225.415 453.106 232.52 453.106 237.845C453.106 242.624 454.638 250.276 465.818 250.276C471.408 250.276 475.192 244.711 475.192 237.845C475.192 230.98 471.408 225.415 465.818 225.415Z" fill="#372D5B"></path><path d="M450.904 226.94C451.628 231.232 453.752 232.873 454.701 238.659C455.65 244.445 453.119 252.854 456.893 260.177C460.668 267.5 466.771 277.129 470.297 277.536C473.823 277.943 502.064 273.173 511.592 254.224C514.327 248.785 520.173 227.456 515.17 214.433C510.168 201.41 502.031 189.476 483.225 189.114C464.42 188.752 447.069 204.192 450.904 226.94Z" fill="#F6A397"></path><path d="M466.632 250.401C467.637 250.424 468.74 250.041 469.235 249.382C469.669 248.805 469.85 248.045 469.722 247.335C468.252 248.547 466.45 248.755 464.64 248.439C464.416 249.79 465.457 250.374 466.632 250.401Z" fill="#D65863"></path><path d="M499.9 226.94C499.184 222.475 496.2 219.899 496.2 219.899C496.2 219.899 489.012 216.915 483.452 216.373C477.892 215.83 472.196 214.203 472.196 214.203C472.196 214.203 473.959 218.668 476.943 220.571C476.943 220.571 463.653 219.898 459.448 215.966C459.448 215.966 460.262 219.207 461.075 221.384C461.075 221.384 454.565 220.713 452.531 218.136C452.531 218.136 450.904 223.81 450.904 226.94C450.904 226.94 443.083 216.237 445.073 207.738C447.062 199.239 449.774 195.985 449.774 195.985C449.774 195.985 444.169 196.527 441.095 195.985C441.095 195.985 448.328 189.656 453.753 185.497C459.178 181.338 475.452 181.157 475.452 181.157C475.452 181.157 474.186 176.817 475.633 169.946C475.633 169.946 482.595 180.162 489.963 183.282C497.331 186.402 496.339 186.137 504.152 188.108C511.965 190.08 519.392 195.081 522.511 199.285C525.63 203.489 529.021 207.829 531.055 208.507C531.055 208.507 526.173 207.829 523.732 205.795C523.732 205.795 527.803 215.04 522.422 226.94C517.042 238.84 503.562 235.319 500.948 232.692C498.333 230.065 499.9 226.94 499.9 226.94Z" fill="#BA6454"></path><path d="M500.946 232.692C498.332 230.065 499.899 226.94 499.899 226.94C499.466 224.239 498.205 222.235 497.274 221.068C499.23 209.208 498.432 196.9 494.959 185.393C496.989 186.218 498.194 186.588 501.133 187.343C504.741 192.77 507.439 198.876 509.297 205.061C511.663 212.937 512.808 221.446 510.601 229.368C510.035 231.399 509.21 233.38 508.167 235.235C504.823 234.955 502.001 233.751 500.946 232.692Z" fill="#874438"></path><path d="M504.628 222.52C504.628 222.52 505.558 192.775 489.962 183.282C489.962 183.282 502.032 181.926 508.948 193.996C515.864 206.066 515.396 216.418 515.222 222.22C515.048 228.021 504.628 222.52 504.628 222.52Z" fill="#0179FF"></path><path d="M509.383 221.383C521.633 221.383 526.217 230.792 526.217 237.845C526.217 244.174 524.188 254.307 509.383 254.307C501.98 254.307 496.969 246.937 496.969 237.845C496.968 228.754 501.98 221.383 509.383 221.383Z" fill="#0179FF"></path><path d="M502.779 237.845C502.779 229.774 508.107 223.231 514.679 223.231C521.251 223.231 526.217 229.774 526.217 237.845C526.217 245.916 521.251 252.459 514.679 252.459C508.106 252.459 502.779 245.916 502.779 237.845Z" fill="#372D5B"></path><path d="M516.249 247.79C520.721 247.79 524.347 243.338 524.347 237.845C524.347 232.353 520.721 227.9 516.249 227.9C511.776 227.9 508.151 232.353 508.151 237.845C508.151 243.338 511.776 247.79 516.249 247.79Z" fill="#0179FF"></path><path d="M478.333 254.307C475.023 256.13 464.21 256.737 463.474 256.636C462.738 256.535 464.249 264.745 466.897 265.049C469.545 265.353 474.841 264.644 477.048 262.518C479.255 260.39 478.333 254.307 478.333 254.307Z" fill="#D65863"></path><path d="M477.641 256.701C477.437 255.973 477.278 255.388 477.124 254.819C473.482 256.062 466.313 256.588 464.103 256.641C464.283 257.739 464.599 258.85 465.047 259.942C465.117 259.897 465.03 260.047 465.1 260.002C469.872 260.753 474.727 259.206 477.641 256.701Z" fill="white"></path><path d="M476.874 234.681C476.874 233.183 477.613 231.969 478.524 231.969C479.435 231.969 480.174 233.183 480.174 234.681C480.174 236.179 479.435 237.393 478.524 237.393C477.613 237.393 476.874 236.179 476.874 234.681Z" fill="#3F1751"></path><path d="M457.994 235.946C457.994 234.448 458.629 233.234 459.413 233.234C460.196 233.234 460.831 234.448 460.831 235.946C460.831 237.444 460.196 238.658 459.413 238.658C458.629 238.659 457.994 237.444 457.994 235.946Z" fill="#3F1751"></path><path d="M486.112 224.107C484.985 223.487 483.771 223.058 482.525 222.7C481.274 222.364 479.977 222.166 478.659 222.12C477.35 222.054 475.965 222.018 474.697 222.507C473.426 222.945 472.273 223.744 471.424 224.797L471.52 224.958C472.882 224.811 474.007 224.477 475.195 224.32C476.356 224.146 477.483 223.721 478.697 223.623C481.098 223.419 483.614 223.609 486.035 224.278L486.112 224.107Z" fill="#3F1751"></path><path d="M453.222 227.612C453.81 227.384 454.429 227.241 455.046 227.169C455.66 227.086 456.275 227.056 456.883 227.049C457.497 227.041 458.105 227.26 458.703 227.113C459.005 227.045 459.312 226.987 459.627 226.856C459.943 226.748 460.266 226.608 460.613 226.365L460.633 226.178C460.043 225.602 459.375 225.356 458.697 225.233C458.012 225.104 457.334 225.379 456.676 225.559C456.014 225.732 455.366 225.963 454.757 226.274C454.158 226.606 453.572 226.953 453.106 227.463L453.222 227.612Z" fill="#3F1751"></path><path d="M472.313 422.377C472.321 422.797 471.733 423.405 470.297 423.405C468.861 423.405 430.234 423.405 425.011 423.405C419.788 423.405 418.57 421.339 420.136 418.728C421.703 416.117 428.318 410.371 444.683 406.367C461.048 402.363 469.653 411.725 472.313 415.942C474.264 419.034 472.313 422.377 472.313 422.377Z" fill="#0179FF"></path><path d="M419.75 419.511C420.651 422.507 455.206 420.944 455.206 420.944C455.206 420.944 451.703 416.211 447.829 416.076C443.955 415.941 442.071 417.287 436.877 418.181C431.682 419.075 435.534 416.067 435.534 416.067C435.534 416.067 431.864 415.254 430.37 414.096C430.37 414.096 438.929 411.567 442.52 410.979C446.111 410.391 455.251 410.783 456.426 410.979C457.257 411.118 461.474 408.668 466.572 409.898C469.417 411.976 471.3 414.332 472.314 415.941C474.265 419.033 472.314 422.376 472.314 422.376C472.322 422.796 471.734 423.404 470.298 423.404C468.862 423.404 430.235 423.404 425.012 423.404C420.324 423.404 418.869 421.739 419.75 419.511Z" fill="#372D5B"></path><path d="M567.55 394.063C567.55 394.063 535.345 399.043 517.889 402.167C501.353 405.126 487.074 406.41 483.027 405.627C478.979 404.844 465.139 399.751 460.699 397.923C456.259 396.095 447.381 395.051 442.811 396.487C438.241 397.923 434.498 399.49 432.67 399.49C430.842 399.49 431.19 402.45 433.627 403.059C436.064 403.668 438.241 403.581 438.241 403.581C438.241 403.581 429.972 408.107 428.492 408.543C427.012 408.979 428.765 411.677 430.768 411.503C430.768 411.503 429.015 412.548 429.624 413.592C430.233 414.637 434.586 414.637 434.586 414.637C434.586 414.637 429.276 417.248 433.715 418.293C438.154 419.337 443.464 414.376 445.641 413.941C447.817 413.506 452.866 413.767 455.303 415.595C457.74 417.423 468.186 425.867 482.462 420.818C482.462 420.818 579.358 424.744 589.02 424.744C598.682 424.744 604.518 416.204 601.42 399.752C598.322 383.3 592.316 371.026 592.316 371.026L558.89 373.376L567.55 394.063Z" fill="#F6A397"></path><path d="M445.87 400.966C446.723 400.765 447.403 400.648 447.829 400.622C447.829 400.622 447.002 400.764 445.87 400.966Z" fill="#D65863"></path><path d="M438.241 403.581C438.241 403.581 436.065 403.668 433.627 403.059C432.942 402.888 432.428 402.528 432.075 402.103C434.786 403.301 438.122 402.536 439.949 402.101C441.102 401.826 443.934 401.31 445.869 400.965C443.932 401.421 441.091 402.312 438.241 403.581Z" fill="#D65863"></path><path d="M438.667 407.498C438.876 407.403 439.053 407.328 439.167 407.293C439.167 407.293 438.98 407.371 438.667 407.498Z" fill="#D65863"></path><path d="M428.509 410.482C428.54 410.51 429.496 411.352 431.508 410.477C433.184 409.748 437.251 408.079 438.668 407.499C436.886 408.308 432.054 411.035 430.768 411.503C429.878 411.58 429.039 411.089 428.509 410.482Z" fill="#D65863"></path><path d="M433.51 413.678C434.99 413.243 438.08 411.371 439.973 410.476C441.866 409.581 444.282 409.477 444.282 409.477C444.282 409.477 443.564 409.542 441.67 410.476C439.777 411.409 434.585 414.635 434.585 414.635C434.585 414.635 431.792 414.634 430.369 414.096C430.384 414.097 432.036 414.112 433.51 413.678Z" fill="#D65863"></path><path d="M461.06 415.811C463.802 417.509 471.897 419.728 476.728 418.814C481.559 417.9 482.604 413.852 482.604 413.852L483.953 418.204C483.953 418.204 551.153 420.119 564.82 419.505C578.33 418.898 599.401 418.591 602.153 410.476C601.398 419.894 596.296 424.742 589.02 424.742C579.358 424.742 482.462 420.816 482.462 420.816C468.186 425.865 457.741 417.421 455.303 415.593C453.277 414.073 449.451 413.639 446.966 413.785C450.673 412.486 458.318 414.114 461.06 415.811Z" fill="#D65863"></path><path d="M567.55 394.063C567.55 394.063 580.14 392.352 582.665 392.091L580.75 384.257L564.82 387.478L567.55 394.063Z" fill="#D65863"></path><path d="M601.198 372.133C601.672 373.359 601.371 374.738 600.431 375.657C594.579 381.371 586.898 389.153 578.997 390.35C570.379 391.656 556.016 392.178 555.233 390.35C554.45 388.522 551.577 365.28 546.354 353.529C541.131 341.778 537.736 335.771 536.431 328.982C535.125 322.192 546.877 306.263 552.099 304.957C557.322 303.651 569.334 302.868 574.296 307.307C579.258 311.746 582.914 328.721 588.659 341.517C593.295 351.841 599.121 366.758 601.198 372.133Z" fill="#5470D3"></path><path d="M568.875 304.729C567.276 304.545 565.677 304.412 564.076 304.376C562.477 304.311 560.878 304.317 559.288 304.411C557.698 304.508 556.115 304.666 554.556 304.947C553.773 305.072 553.005 305.254 552.234 305.426C551.517 305.687 550.779 305.878 550.118 306.29C549.416 306.605 548.806 307.101 548.161 307.531C547.575 308.048 546.948 308.518 546.412 309.098C545.264 310.177 544.297 311.443 543.317 312.692C542.362 313.965 541.493 315.307 540.668 316.678C539.819 318.037 539.063 319.452 538.329 320.885C539.408 317.846 540.901 314.958 542.689 312.248C543.599 310.903 544.587 309.599 545.741 308.43C546.283 307.814 546.948 307.311 547.56 306.761C548.245 306.291 548.887 305.76 549.655 305.404C550.374 304.969 551.204 304.749 552.001 304.477C552.801 304.309 553.596 304.117 554.405 304.013C556.018 303.782 557.642 303.629 559.265 303.644C562.505 303.639 565.745 303.953 568.875 304.729Z" fill="#314EC6"></path><path d="M594.678 376.944C594.635 372.772 585.824 334.519 578.041 313.199C581.35 320.484 584.442 332.123 588.659 341.516C593.295 351.841 599.121 366.758 601.198 372.133C601.672 373.359 601.372 374.738 600.431 375.657C598.19 377.846 595.678 380.336 592.99 382.645C593.193 382.448 594.718 380.84 594.678 376.944Z" fill="#314EC6"></path><path d="M174.624 333.85C174.465 335.137 174.734 336.434 175.359 337.571C177.638 341.716 178.793 346.477 178.644 351.206C178.546 354.322 177.906 357.509 178.754 360.509C180.217 365.684 185.679 368.884 187.437 373.967C188.995 378.473 187.546 384.14 190.785 387.639C191.588 388.506 192.834 389.17 193.931 388.731C194.482 388.51 194.895 388.05 195.287 387.605C199 383.388 202.975 378.263 201.83 372.763C200.754 367.596 195.429 364.104 194.419 358.923C193.594 354.69 195.758 349.806 193.333 346.24C192.664 345.256 191.706 344.503 190.975 343.565C188.091 339.861 189.159 333.958 185.836 330.643C184.752 329.562 183.396 328.949 181.918 328.633C178.433 327.886 175.062 330.314 174.624 333.85Z" fill="#BA5E5B"></path><path d="M195.74 399.508C195.963 396.751 196.058 393.994 196.161 391.229C196.035 388.473 195.888 385.716 195.652 382.962C195.416 380.208 195.106 377.453 194.619 374.715C194.124 371.994 193.47 369.215 192.325 366.656C190.326 361.6 188.709 356.314 187.076 351.075L184.708 343.177C183.735 340.597 182.785 338.012 181.867 335.408C182.269 338.148 182.896 340.837 183.446 343.546L185.82 351.462C187.463 356.727 189.064 361.981 191.113 367.163C192.221 369.64 192.834 372.262 193.325 374.945C193.802 377.625 194.108 380.346 194.342 383.074C194.571 385.803 194.732 388.542 194.837 391.285L195.74 399.508Z" fill="#FFA6A4"></path><path d="M181.188 343.64C181.642 344.328 182.228 344.844 182.857 345.3C183.18 345.517 183.559 345.658 183.911 345.836C184.268 346.007 184.58 346.237 184.87 346.499L184.996 346.613L185.108 346.442C185.371 346.04 185.691 345.667 185.942 345.259C186.185 344.847 186.44 344.442 186.656 344.017C187.076 343.161 187.389 342.252 187.548 341.266L187.47 341.227C186.781 341.95 186.246 342.748 185.818 343.601C185.61 344.03 185.441 344.479 185.26 344.921C185.088 345.368 184.984 345.848 184.822 346.301L185.059 346.244C184.724 346.045 184.411 345.815 184.143 345.524C183.87 345.241 183.624 344.921 183.322 344.677C182.701 344.211 182.037 343.805 181.241 343.572L181.188 343.64Z" fill="#FFA6A4"></path><path d="M181.858 353.063C182.332 353.453 182.82 353.875 183.331 354.227C183.842 354.589 184.361 354.937 184.922 355.218C185.489 355.49 186.091 355.705 186.636 356.014C187.184 356.317 187.684 356.699 188.173 357.096L188.345 357.236L188.519 357.008C189.275 356.018 189.921 354.966 190.531 353.893C191.105 352.8 191.617 351.672 191.984 350.462L191.908 350.419C191.061 351.358 190.359 352.378 189.719 353.434C189.115 354.51 188.547 355.607 188.089 356.765L188.435 356.677C187.863 356.41 187.3 356.13 186.784 355.773C186.265 355.422 185.801 354.98 185.301 354.598C184.795 354.224 184.243 353.923 183.68 353.641C183.109 353.368 182.543 353.102 181.876 352.976L181.858 353.063Z" fill="#FFA6A4"></path><path d="M185.206 365.5C185.725 366.023 186.304 366.408 186.901 366.756C187.49 367.119 188.137 367.36 188.827 367.523C189.514 367.69 190.137 367.993 190.691 368.417C191.244 368.837 191.785 369.3 192.339 369.662L192.757 369.936L193.068 369.47C193.526 368.784 193.942 368.074 194.265 367.314C194.589 366.554 194.877 365.774 195.037 364.924L194.941 364.871C194.309 365.462 193.804 366.122 193.336 366.803C192.867 367.483 192.49 368.214 192.156 368.969L192.885 368.777C192.253 368.428 191.581 368.228 190.916 367.995C190.252 367.767 189.645 367.438 189.098 366.982C188.554 366.52 187.959 366.156 187.304 365.916C186.656 365.664 185.985 365.46 185.251 365.399L185.206 365.5Z" fill="#FFA6A4"></path><path d="M200.124 400.047C202.278 399.693 210.355 397.109 209.791 395C207.37 385.948 204.949 375.679 213.333 371.251C217.368 369.121 222.432 368.038 224.729 364.096C227.095 360.036 225.353 354.875 223.23 350.683C221.107 346.491 218.55 342.003 219.46 337.393C220.413 332.565 224.978 329.002 225.709 324.136C226.706 317.491 220.254 312.137 214.055 309.543C211.947 308.661 209.629 307.907 207.407 308.443C205.82 308.826 204.444 309.843 203.356 311.06C199.002 315.928 199.18 323.274 200.173 329.73C201.166 336.186 202.687 343.003 200.256 349.066C198.529 353.372 194.832 357.422 195.822 361.954C196.219 363.769 197.351 365.353 197.782 367.16C198.946 372.033 194.898 376.422 193.043 381.075C190.649 387.079 192.292 394.416 196.83 398.971C197.694 399.837 198.917 400.246 200.124 400.047Z" fill="#E67471"></path><path d="M199.362 400.147C199.861 396.564 200.36 392.993 200.999 389.449C201.151 388.562 201.337 387.681 201.479 386.795C201.614 385.908 201.693 385.013 201.84 384.128C202.108 382.354 202.406 380.586 202.744 378.828C203.428 375.317 204.246 371.821 205.446 368.496C206.048 366.841 206.762 365.221 207.705 363.824C208.173 363.128 208.726 362.511 209.338 362.095C210.145 361.565 210.915 360.882 211.517 360.069C212.759 358.423 213.134 356.332 213.089 354.447C213.047 352.537 212.686 350.714 212.282 348.933C211.452 345.378 210.407 341.944 209.826 338.447C209.236 334.968 209.121 331.404 210.04 328.067C210.323 327.252 210.545 326.424 210.813 325.594C211.087 324.768 211.442 323.965 211.843 323.18C212.648 321.608 213.697 320.145 214.859 318.754C213.434 319.872 212.113 321.163 211.01 322.657C210.456 323.4 209.938 324.183 209.497 325.013C209.041 325.835 208.655 326.709 208.455 327.632C207.45 331.285 207.593 335.109 208.205 338.718C208.81 342.346 209.873 345.832 210.68 349.3C211.075 351.032 211.41 352.772 211.445 354.474C211.481 356.169 211.153 357.824 210.195 359.09C209.721 359.726 209.127 360.264 208.428 360.724C207.545 361.326 206.891 362.096 206.351 362.89C205.274 364.488 204.534 366.202 203.901 367.93C202.651 371.396 201.824 374.95 201.129 378.515C200.785 380.299 200.484 382.089 200.213 383.882C200.089 384.78 199.922 385.672 199.813 386.572C199.721 387.474 199.681 388.382 199.624 389.287C199.43 392.91 199.295 396.529 199.362 400.147Z" fill="#FFA6A4"></path><path d="M213.669 329.493C213.049 329.709 212.529 330.071 212.047 330.456C211.57 330.849 211.114 331.264 210.778 331.79C210.438 332.312 210.135 332.864 209.699 333.291C209.28 333.736 208.774 334.097 208.288 334.487L208.927 334.527C208.712 334.063 208.446 333.629 208.202 333.184C207.951 332.743 207.699 332.304 207.401 331.896C207.122 331.477 206.802 331.081 206.498 330.679C206.192 330.276 205.846 329.904 205.569 329.476L205.461 329.494C205.437 330.058 205.608 330.582 205.78 331.076C205.969 331.567 206.18 332.044 206.435 332.494C206.673 332.954 206.974 333.372 207.28 333.787C207.594 334.196 207.895 334.611 208.256 334.989L208.656 335.409L208.895 335.029C209.222 334.51 209.537 333.971 209.945 333.52C210.336 333.052 210.867 332.716 211.369 332.357C211.874 332.001 212.273 331.547 212.663 331.085C213.051 330.617 213.412 330.134 213.737 329.58L213.669 329.493Z" fill="#FFA6A4"></path><path d="M205.839 343.199C206.095 343.815 206.43 344.377 206.803 344.905C207.184 345.426 207.581 345.934 208.037 346.386C208.503 346.83 209.037 347.208 209.537 347.617C210.027 348.035 210.459 348.505 210.851 349.018L210.976 349.181L211.152 349.04C211.804 348.521 212.322 348.047 212.836 347.495C213.323 346.939 213.841 346.412 214.294 345.834C214.751 345.259 215.177 344.662 215.582 344.048C215.991 343.437 216.358 342.797 216.784 342.2L216.722 342.109C216.007 342.447 215.45 342.97 214.898 343.469C214.354 343.982 213.85 344.526 213.383 345.097C212.911 345.664 212.51 346.287 212.072 346.877C211.644 347.454 211.283 348.171 210.877 348.678L211.178 348.701C210.682 348.294 210.235 347.836 209.851 347.322C209.476 346.798 209.14 346.241 208.746 345.739C208.342 345.246 207.882 344.805 207.425 344.361C206.959 343.924 206.465 343.514 205.924 343.13L205.839 343.199Z" fill="#FFA6A4"></path><path d="M220.241 353.779C219.561 354.578 218.856 355.313 218.135 356.015C217.412 356.72 216.635 357.335 215.88 358.012C215.109 358.667 214.236 359.253 213.247 359.541C212.266 359.85 211.225 359.889 210.221 359.878L210.67 360.194C210.493 359.348 210.23 358.551 209.953 357.745C209.681 356.94 209.333 356.158 208.912 355.411C208.496 354.662 208.002 353.948 207.42 353.303C206.828 352.674 206.142 352.084 205.323 351.791L205.268 351.886C205.888 352.448 206.366 353.096 206.781 353.788C207.203 354.474 207.561 355.199 207.912 355.929L208.92 358.154C209.251 358.899 209.543 359.676 209.833 360.43L209.973 360.795L210.282 360.747C211.351 360.58 212.365 360.218 213.356 359.869C214.335 359.487 215.342 359.151 216.305 358.659C217.278 358.183 218.098 357.444 218.785 356.622C219.471 355.798 220.031 354.861 220.337 353.829L220.241 353.779Z" fill="#FFA6A4"></path><path d="M200.764 361.876C200.434 362.669 200.321 363.533 200.343 364.389C200.379 365.243 200.514 366.105 200.813 366.911C201.128 367.711 201.589 368.446 202.106 369.112L203.613 371.115L203.72 371.258L203.894 371.134C204.709 370.555 205.637 370.115 206.522 369.654C207.405 369.179 208.32 368.775 209.236 368.385C210.151 367.991 211.064 367.591 212.004 367.239C212.936 366.857 213.895 366.552 214.868 366.186L214.852 366.078C212.775 366.033 210.677 366.474 208.767 367.315C207.809 367.733 206.908 368.269 206.036 368.836C205.167 369.416 204.392 370.114 203.633 370.834L203.914 370.853C203.356 370.265 202.847 369.615 202.523 368.867C202.161 368.138 201.983 367.344 201.735 366.601C201.253 365.101 200.947 363.557 200.872 361.904L200.764 361.876Z" fill="#FFA6A4"></path><path d="M185.48 423.404H208.536C210.676 423.404 212.495 421.554 212.817 419.05L216.467 390.688C216.866 387.585 214.837 384.79 212.186 384.79H181.83C179.178 384.79 177.149 387.585 177.549 390.688L181.199 419.05C181.521 421.554 183.34 423.404 185.48 423.404Z" fill="#0179FF"></path><path d="M181.831 384.791H197.35C194.698 384.791 192.669 387.586 193.069 390.689L196.719 419.051C197.041 421.555 198.86 423.405 201 423.405H185.48C183.34 423.405 181.521 421.555 181.199 419.051L177.549 390.689C177.15 387.586 179.179 384.791 181.831 384.791Z" fill="#372D5B"></path><path d="M392.011 415.616H295.581C294.61 415.616 293.823 416.403 293.823 417.374V421.646C293.823 422.617 294.61 423.404 295.581 423.404H392.011V415.616Z" fill="#282142"></path><path d="M416.828 420.988V422.725C416.828 423.1 416.524 423.404 416.149 423.404H391.858C391.102 423.404 390.489 422.791 390.489 422.036V416.976C390.489 416.159 391.2 415.524 392.011 415.616L416.224 420.314C416.568 420.352 416.828 420.643 416.828 420.988Z" fill="#0179FF"></path><path d="M223.491 251.719H403.717C407.363 251.719 410.618 254.006 411.853 257.437L451.268 366.895C452.916 372.54 448.786 376.77 442.149 377.485C441.132 377.595 436.291 375.419 428.688 371.843H267.565C263.919 371.843 260.664 369.556 259.429 366.125L223.823 267.246C217.803 264.104 214.371 262.308 214.371 262.308C214.371 262.308 212.143 251.719 223.491 251.719Z" fill="#0179FF"></path><path d="M398.074 257.361H217.849C215.289 257.361 213.505 259.9 214.372 262.309L253.787 371.767C255.022 375.198 258.277 377.485 261.923 377.485H442.149C444.709 377.485 446.493 374.946 445.626 372.537L406.21 263.079C404.975 259.648 401.721 257.361 398.074 257.361Z" fill="#372D5B"></path><path d="M357.387 377.485L349.387 347.813L319.066 377.485H357.387Z" fill="#282142"></path><path d="M313.507 295.802C314.3 300.696 317.466 302.668 321.258 302.668C325.05 302.668 327.903 299.535 327.239 295.802C326.575 292.07 323.28 288.936 319.488 288.936C315.696 288.936 312.9 292.059 313.507 295.802Z" fill="#0179FF"></path><path d="M398.207 359.271L395.889 352.835H398.802L401.12 359.271H398.207Z" fill="#282142"></path><path d="M392.072 359.271L389.755 352.835H392.668L394.986 359.271H392.072Z" fill="#282142"></path><path d="M385.938 359.271L383.62 352.835H386.533L388.851 359.271H385.938Z" fill="#282142"></path><path d="M379.803 359.271L377.486 352.835H380.399L382.717 359.271H379.803Z" fill="#282142"></path><path d="M292.668 359.271L290.351 352.835H293.264L295.581 359.271H292.668Z" fill="#282142"></path><path d="M286.534 359.271L284.216 352.835H287.129L289.447 359.271H286.534Z" fill="#282142"></path><path d="M280.399 359.271L278.082 352.835H280.995L283.312 359.271H280.399Z" fill="#282142"></path><path d="M274.265 359.271L271.947 352.835H274.86L277.178 359.271H274.265Z" fill="#282142"></path><path d="M296.529 412.826C298.308 407.712 319.874 338.121 319.874 338.121H347.558L349.387 347.813C349.387 347.813 330.825 407.712 329.047 412.826C328.912 413.216 328.782 413.607 328.661 413.998H328.663C327.036 418.998 331.328 418.977 336.161 418.977C340.995 418.977 384.984 418.977 384.984 418.977V423.404H336.161H303.643C293.861 423.404 294.75 417.94 296.529 412.826Z" fill="#372D5B"></path><path d="M347.558 338.121C347.558 338.121 325.991 407.712 324.213 412.826C322.434 417.94 321.545 423.404 331.328 423.404H298.81C289.027 423.404 289.917 417.94 291.695 412.826C293.474 407.712 315.04 338.121 315.04 338.121H347.558Z" fill="#0179FF"></path><path d="M340.778 338.121C338.633 338.022 336.488 337.973 334.343 337.903C332.198 337.829 330.053 337.813 327.909 337.766C325.764 337.732 323.619 337.669 321.474 337.669L315.039 337.629L314.68 337.627L314.568 337.975C313.671 340.778 312.787 343.584 311.944 346.404L309.378 354.851C307.727 360.501 306.074 366.149 304.564 371.843C306.546 366.296 308.383 360.704 310.223 355.113L312.894 346.699C313.797 343.898 314.658 341.084 315.507 338.267L315.037 338.613L321.472 338.573C323.617 338.572 325.762 338.51 327.907 338.476C330.052 338.428 332.197 338.412 334.341 338.339C336.489 338.27 338.633 338.22 340.778 338.121Z" fill="#7F74D1"></path><path d="M152.177 440.489H629.521C634.239 440.489 638.063 436.665 638.063 431.947C638.063 427.229 634.238 423.405 629.521 423.405H152.177C147.459 423.405 143.635 427.23 143.635 431.947C143.635 436.664 147.459 440.489 152.177 440.489Z" fill="#8E5058"></path><path d="M152.177 440.489H629.521C634.239 440.489 638.063 436.665 638.063 431.947H143.635C143.635 436.664 147.459 440.489 152.177 440.489Z" fill="#64364A"></path><path d="M251.148 169.395C260.191 130.757 236.2 92.1036 197.562 83.0601C158.924 74.0167 120.27 98.0078 111.227 136.646C102.183 175.284 126.175 213.937 164.813 222.981C203.451 232.024 242.104 208.033 251.148 169.395Z" fill="#0179FF"></path><mask id="mask0_205_4" style="mask-type:luminance" maskUnits="userSpaceOnUse" x="109" y="67" width="145" height="158"><path d="M253.038 153.028C253.038 192.71 220.869 224.878 181.188 224.878C141.506 224.878 109.338 192.709 109.338 153.028C109.338 113.346 141.507 67.2261 181.188 67.2261C220.87 67.2251 253.038 113.346 253.038 153.028Z" fill="white"></path></mask><g mask="url(#mask0_205_4)"><path d="M282.218 210.367C283.583 217.224 277.236 223.317 275.249 224.46C273.262 225.602 259.925 230.934 251.913 231.125C243.902 231.315 233.329 214.368 237.656 212.464C241.984 210.56 271.462 208.465 274.699 208.465C277.936 208.464 282.218 210.367 282.218 210.367Z" fill="#FFC5C7"></path><path d="M261.208 206.75C257.712 227.316 249.407 243.311 246.815 243.597C244.224 243.883 219.328 235.313 212.464 232.172C205.601 229.03 214.572 180.763 218.843 181.613C223.114 182.463 232.479 191.736 240.212 196.182C247.946 200.628 261.208 206.75 261.208 206.75Z" fill="white"></path><path d="M220.202 215.299C222.602 219.415 242.386 229.847 253.282 233.65C250.589 239.723 248.052 243.46 246.816 243.596C244.597 243.841 226.028 237.594 216.428 233.82C217.232 226.179 220.202 215.299 220.202 215.299Z" fill="#DCEDFF"></path><path d="M282.247 209.416C282.443 217.575 275.094 218.747 266.296 216.652C257.499 214.557 243.135 194.753 236.74 185.804C230.346 176.854 218.415 160.906 215.948 159.478C213.481 158.05 207.823 157.292 202.982 149.245C198.141 141.198 204.509 124.345 206.797 122.346C209.085 120.346 228.689 127.022 230.966 130.397C233.243 133.771 229.353 151.909 230.043 154.194C230.734 156.479 247.418 175.14 254.703 179.71C261.987 184.28 282.105 203.513 282.247 209.416Z" fill="#FFC5C7"></path><path d="M216.837 135.809C214.531 134.666 213.974 129.477 215.424 130.392C216.875 131.306 219.412 131.287 222.844 131.239C226.277 131.191 227.684 130.895 227.684 130.895C227.684 130.895 228.036 133.143 228.018 134.985C228.018 134.985 219.143 136.952 216.837 135.809Z" fill="#FE8A8B"></path><path d="M201.571 136.989C202.969 134.39 204.048 132.419 204.048 132.419L217.534 145.4C221.222 142.202 225.733 139.284 225.733 139.284L226.92 141.4C224.738 145.092 222.837 152.899 222.794 154.803C222.794 154.803 220.723 157.088 219.567 157.279C219.567 157.279 233.995 180.13 243.27 191.365C252.49 202.534 258.805 212.194 263.152 215.299C254.382 210.243 242.42 193.754 236.739 185.803C230.345 176.853 218.414 160.905 215.947 159.477C213.48 158.049 207.822 157.291 202.981 149.244C201.061 146.052 200.918 141.476 201.571 136.989Z" fill="#FE8A8B"></path><path d="M229.641 138.293C229.478 139.624 216.076 151.242 214.673 152.575C214.568 152.675 213.521 152.828 213.232 152.575C209.668 149.443 194.105 121.183 193.827 120.163C193.568 119.212 203.899 109.49 207.054 106.89C207.484 106.536 209.254 106.75 209.545 107.18C212.729 111.894 229.853 136.572 229.641 138.293Z" fill="#0C0835"></path><path d="M228.201 138.293C228.038 139.624 214.636 151.242 213.233 152.575C211.831 153.908 192.688 121.265 192.388 120.163C192.128 119.212 203.631 109.648 206.786 107.047C207.215 106.693 207.815 106.749 208.105 107.179C211.289 111.894 228.412 136.572 228.201 138.293Z" fill="#252384"></path><path d="M225.945 136.383C225.792 137.628 213.255 148.497 211.943 149.744C210.631 150.991 192.723 120.453 192.442 119.422C192.199 118.532 202.96 109.585 205.911 107.152C206.313 106.821 206.874 106.873 207.146 107.276C210.123 111.686 226.143 134.773 225.945 136.383Z" fill="#57AFF7"></path><path d="M217.907 120.454C215.832 119.203 213.284 114.966 213.055 113.538C212.826 112.11 212.967 110.824 214.082 110.539C215.198 110.253 218.633 114.728 220.345 116.061C222.057 117.394 224.141 120.155 223.292 122.012C222.443 123.869 218.639 123.154 218.231 122.869C217.824 122.583 217.907 120.454 217.907 120.454Z" fill="#FFC5C7"></path><path d="M213.44 110.914C212.782 112.537 217.069 119.054 220.828 120.929L219.43 122.527C219.43 122.527 218.796 122.387 217.981 122.194C217.87 121.471 217.906 120.454 217.906 120.454C215.831 119.203 213.283 114.966 213.054 113.538C212.881 112.455 212.925 111.46 213.44 110.914Z" fill="#FE8A8B"></path><path d="M222.733 127.037C219.162 125.129 216.362 125.343 214.419 124.558C212.477 123.773 212.124 120.773 213.445 120.273C214.767 119.773 222.814 121.059 224.889 121.987C226.963 122.915 227.955 127.192 227.955 127.192L222.733 127.037Z" fill="#FFC5C7"></path><path d="M221.169 124.812C223.188 125.193 223.883 124.812 223.883 124.812C223.826 125.601 224.57 125.994 225.409 127.116L222.733 127.037C219.162 125.129 216.362 125.343 214.42 124.558C213.534 124.2 212.996 123.38 212.78 122.548C213.644 124.193 219.159 124.433 221.169 124.812Z" fill="#FE8A8B"></path><path d="M230.965 130.396C229.059 133.033 219.717 131.89 217.833 131.604C215.95 131.318 214.767 130.129 214.96 128.929C215.348 126.51 227.694 126.938 228.714 127.319C229.734 127.701 230.965 130.396 230.965 130.396Z" fill="#FFC5C7"></path><path d="M215.028 129.512C216.304 130.781 219.373 131.504 222.722 131.774C225.621 132.008 227.289 131.896 227.674 131.862C224.153 132.423 219.156 131.804 217.833 131.604C216.261 131.366 215.23 130.491 215.028 129.512Z" fill="#FE8A8B"></path><path d="M187.241 167.332C207.072 177.424 210.326 177.034 218.844 181.612C227.362 186.19 224.827 234.361 224.287 241.788C223.747 249.214 221.694 278.73 222.826 286.728C223.958 294.726 228.366 324.432 230.318 329.002C232.27 333.572 235.994 341.284 230.234 345.854C224.474 350.424 212.288 353.566 185.829 351.852C159.37 350.138 130.849 333.857 129.587 331.572C128.325 329.287 142.235 287.299 142.817 279.301C143.399 271.303 144.978 265.305 145.82 261.592C146.662 257.879 138.245 240.455 136.9 229.315C135.555 218.175 123.452 187.445 125.747 181.816C128.042 176.187 149.122 169.915 163.476 162.757C177.83 155.598 187.241 167.332 187.241 167.332Z" fill="white"></path><path d="M206.903 179.823C203.638 190.553 196.991 200.228 188.145 207.124C177.405 204.489 166.485 199.757 157.69 193.054C167.518 200.293 178.237 206.382 189.713 210.54C199.406 202.601 205.158 192.229 206.903 179.823Z" fill="#DCEDFF"></path><path d="M202.854 174.715C199.045 173.09 194.151 170.848 187.241 167.332C187.241 167.332 177.83 155.598 163.475 162.756C158.494 165.24 152.705 167.617 147.171 169.897C155.722 184.445 169.577 195.825 185.569 201.237C194.003 194.596 200.067 185.08 202.854 174.715Z" fill="#FFC5C7"></path><path d="M129.587 331.572C128.325 329.287 142.235 287.299 142.817 279.301C143.399 271.304 144.978 265.305 145.82 261.592C146.662 257.879 138.245 240.455 136.9 229.315C136.666 227.379 136.103 224.844 135.352 221.959L144.294 215.299C149.538 229.926 152.809 255.633 157.779 261.917C162.749 268.201 175.13 270.772 175.13 270.772C175.13 270.772 162.901 273.628 157.569 272.486C157.569 272.486 151.876 295.051 151.811 306.191C151.747 317.331 152.781 334.183 152.912 336.468C152.961 337.321 152.773 340.295 152.518 343.686C139.703 338.613 130.3 332.862 129.587 331.572Z" fill="#DCEDFF"></path><path d="M165.728 142.464C165.524 154.383 164.737 162.571 162.095 164.857C162.095 164.857 166.637 184.636 184.772 182.947C190.907 182.376 190.322 172.093 187.241 167.332L189.067 152.712L165.728 142.464Z" fill="#FFC5C7"></path><path d="M163.476 162.757C165.028 159.101 165.565 151.977 165.728 142.464L189.067 152.713L187.896 162.088C183.759 163.944 163.476 162.757 163.476 162.757Z" fill="#FE8A8B"></path><path d="M139.543 230.54C145.004 219.804 147.19 202.37 142.261 193.194C137.332 184.018 128.029 180.715 125.747 181.816C123.464 182.917 117.284 197.232 111.481 203.838C105.678 210.445 89.8311 228.98 89.3511 230.54C88.8711 232.1 100.805 244.691 123.251 253.939C125.923 255.04 139.543 230.54 139.543 230.54Z" fill="white"></path><path d="M122.894 238.864L119.313 246.207C119.313 246.207 136.953 228.523 144.277 215.327C143.389 220.832 141.738 226.227 139.544 230.54C139.544 230.54 125.924 255.04 123.251 253.939C119.41 252.357 115.902 250.674 112.686 248.968L122.894 238.864Z" fill="#DCEDFF"></path><path d="M190.416 143.533C189.203 138.619 189.229 133.594 188.936 128.569C188.717 124.812 188.526 121.373 185.116 119.126C182.624 117.484 179.499 117.161 176.567 117.533C168.687 118.533 166.992 126.212 167.595 133.482C168.057 139.047 170.231 144.391 172.389 149.51C169.491 149.382 165.534 147.863 163.804 145.451C164.581 148.625 166.053 151.541 168.355 153.786C159.956 153.641 152.162 148.146 147.713 140.766C143.265 133.386 141.855 124.376 142.329 115.689C142.891 105.381 146.105 95.0491 152.481 87.1121C165.305 71.1491 190.011 69.2881 205.056 83.0061C210.228 87.7221 213.98 94.0431 215.856 100.899C218.323 109.911 218.272 119.581 216.35 128.697C215.554 132.472 215.19 135.739 214.815 139.519C214.699 140.691 213.278 154.297 214.1 154.248C208.795 154.57 202.701 153.499 199.107 149.444C200.718 152.229 202.109 154.912 203.719 157.697C197.02 156.582 192.097 150.34 190.416 143.533Z" fill="#372D5B"></path><path d="M162.887 124.99C160.517 123.589 157.668 122.829 155.47 125.058C152.232 128.343 156.832 143.624 163.815 139.911C163.815 139.911 173.926 154.05 181.347 158.049C188.768 162.048 194.055 160.049 196.834 157.192C199.613 154.336 209.09 142.619 210.795 130.2C211.403 125.773 210.751 117.061 210.886 115.204C211.302 109.492 213.466 104.802 208.96 100.318C204.408 95.789 198.103 93.049 191.685 92.822C183.602 92.537 175.522 96.169 170.169 102.233C164.256 108.934 163.231 116.499 162.887 124.99Z" fill="#FFC5C7"></path><path d="M156.618 129.235C157.222 126.435 159.61 125.884 161.386 127.835C163.207 129.835 163.513 136.168 163.045 137.101C162.577 138.034 159.449 137.968 158.856 136.035C158.263 134.102 160.085 132.89 161.843 133.463C161.843 133.463 162.334 130.641 160.897 128.824C159.46 127.007 157.962 127.702 157.595 128.169C157.228 128.635 156.618 129.235 156.618 129.235Z" fill="#FE8A8B"></path><path d="M175.946 116.85C176.622 116.22 177.339 115.636 178.091 115.081C178.848 114.535 179.656 114.045 180.514 113.644C181.365 113.244 182.256 112.812 183.199 112.74C184.133 112.657 185.072 112.733 185.926 113.1L185.914 113.228C185.457 113.411 185.022 113.528 184.594 113.652L183.335 114.001C182.516 114.242 181.667 114.315 180.837 114.591C180.012 114.866 179.198 115.217 178.396 115.621C177.588 116.015 176.807 116.483 176.018 116.95L175.946 116.85Z" fill="#3F1751"></path><path d="M207.536 113.644C206.771 113.239 205.961 112.943 205.119 112.766C204.282 112.578 203.425 112.483 202.565 112.462C201.7 112.444 200.841 112.621 199.987 112.614C199.126 112.617 198.261 112.643 197.316 112.548L197.289 112.425C198.098 111.838 199.019 111.521 199.949 111.34C200.886 111.151 201.824 111.306 202.728 111.441C203.638 111.574 204.523 111.808 205.354 112.154C206.178 112.51 206.962 112.952 207.615 113.537L207.536 113.644Z" fill="#3F1751"></path><path d="M184.427 121.871C184.395 120.663 183.787 119.741 183.068 119.811C182.349 119.882 181.792 120.918 181.824 122.127C181.856 123.335 182.464 124.257 183.183 124.187C183.902 124.116 184.458 123.079 184.427 121.871Z" fill="#3F1751"></path><path d="M203.505 120.346C203.473 119.138 202.971 118.205 202.384 118.263C201.796 118.32 201.346 119.347 201.377 120.555C201.409 121.763 201.911 122.696 202.498 122.638C203.086 122.58 203.536 121.554 203.505 120.346Z" fill="#3F1751"></path><path d="M190.401 133.614C192.055 134.764 194.493 134.739 196.293 133.554C196.088 134.485 195.672 135.392 194.766 135.723C193.861 136.054 192.86 135.957 192.028 135.575C191.196 135.192 190.927 134.355 190.401 133.614Z" fill="#FE8A8B"></path><path d="M183.781 140.702C187.766 140.766 197.344 140.031 200.467 139.587C199.236 143.623 196.006 147.61 191.497 147.612C187.436 147.615 184.754 144.278 183.781 140.702Z" fill="#C31F2A"></path><path d="M187.436 146.294C189.021 145.805 190.633 146.056 191.281 146.257C191.281 146.257 193.388 144.782 196.45 145.752C195.057 146.876 193.399 147.612 191.496 147.613C189.929 147.613 188.574 147.11 187.436 146.294Z" fill="#FB8384"></path><path d="M197.764 142.963C193.731 144.22 189.329 143.858 185.53 142.489C185.505 141.893 185.459 141.292 185.413 140.692C189.351 140.608 195.725 140.131 199.138 139.751C198.844 140.867 198.401 141.958 197.764 142.963Z" fill="white"></path><path d="M166.872 111.844C173.37 111.567 179.817 110.136 185.822 107.637C186.965 104.994 187.004 102.648 187.175 99.7742C188.808 102.77 189.779 106.123 189.946 109.531C193.73 109.286 197.533 109.082 201.317 108.837C202.377 105.838 202.505 102.75 202.337 99.5742C203.616 102.558 204.258 106.314 204.695 109.531C206.979 108.718 209.874 109.903 212.26 110.331C215.217 103.743 215.024 91.8082 208.768 86.8122C202.675 81.9462 192.092 80.6212 184.647 81.6992C168.807 83.9922 156.359 97.1442 157.342 113.528C157.903 122.875 162.592 131.714 169.316 138.231C165.318 130.255 164.524 120.451 166.872 111.844Z" fill="#372D5B"></path></g><path d="M364.754 168.32C370.557 145.987 357.158 123.178 334.825 117.374C312.491 111.571 289.682 124.971 283.879 147.304C278.075 169.637 291.475 192.446 313.808 198.25C336.141 204.053 358.95 190.654 364.754 168.32Z" fill="#E67471"></path><path d="M303.723 174.159H344.949C346.841 174.159 348.375 172.625 348.375 170.733V144.873C348.375 142.981 346.841 141.447 344.949 141.447H303.723C301.831 141.447 300.297 142.981 300.297 144.873V170.734C300.297 172.625 301.831 174.159 303.723 174.159Z" fill="#DBE9FF"></path><path d="M303.723 174.159H344.949C346.841 174.159 348.375 172.625 348.375 170.733L324.336 155.616L300.297 170.733C300.297 172.625 301.831 174.159 303.723 174.159Z" fill="#CDDCF4"></path><path d="M303.723 141.446H344.949C346.841 141.446 348.375 142.98 348.375 144.872L324.336 159.989L300.297 144.872C300.297 142.98 301.831 141.446 303.723 141.446Z" fill="#0179FF"></path><path d="M629.993 258.64C652.473 253.432 666.475 230.986 661.267 208.505C656.059 186.024 633.612 172.022 611.132 177.23C588.651 182.439 574.649 204.885 579.857 227.366C585.065 249.846 607.512 263.849 629.993 258.64Z" fill="#E67471"></path><path d="M632.28 209.757H628.079C627.699 208.1 627.045 206.551 626.168 205.153L629.141 202.18C629.546 201.774 629.546 201.117 629.141 200.712L625.837 197.408C625.431 197.003 624.774 197.003 624.369 197.408L621.396 200.381C619.998 199.504 618.449 198.85 616.792 198.47V194.269C616.792 193.696 616.327 193.231 615.754 193.231H611.082C610.509 193.231 610.044 193.696 610.044 194.269V198.47C608.387 198.85 606.838 199.504 605.44 200.381L602.467 197.408C602.061 197.003 601.404 197.003 600.999 197.408L597.695 200.712C597.289 201.117 597.289 201.775 597.695 202.18L600.668 205.153C599.791 206.551 599.137 208.1 598.757 209.757H594.556C593.983 209.757 593.518 210.222 593.518 210.795V215.467C593.518 216.04 593.983 216.505 594.556 216.505H598.757C599.137 218.162 599.791 219.711 600.668 221.109L597.695 224.082C597.289 224.488 597.289 225.145 597.695 225.55L600.999 228.854C601.405 229.26 602.062 229.26 602.467 228.854L605.44 225.881C606.838 226.758 608.387 227.412 610.044 227.792V231.993C610.044 232.566 610.509 233.031 611.082 233.031H615.754C616.328 233.031 616.792 232.566 616.792 231.993V227.792C618.449 227.412 619.998 226.758 621.396 225.881L624.369 228.854C624.775 229.26 625.432 229.26 625.837 228.854L629.141 225.55C629.546 225.144 629.546 224.487 629.141 224.082L626.168 221.109C627.045 219.711 627.699 218.162 628.079 216.505H632.28C632.853 216.505 633.318 216.04 633.318 215.467V210.795C633.318 210.222 632.853 209.757 632.28 209.757ZM613.417 219.579C609.857 219.579 606.97 216.693 606.97 213.132C606.97 209.572 609.856 206.685 613.417 206.685C616.977 206.685 619.864 209.571 619.864 213.132C619.864 216.692 616.978 219.579 613.417 219.579Z" fill="#DBE9FF"></path><path d="M613.417 204.158C608.461 204.158 604.443 208.176 604.443 213.132C604.443 218.088 608.461 222.106 613.417 222.106C618.373 222.106 622.391 218.088 622.391 213.132C622.391 208.176 618.373 204.158 613.417 204.158ZM613.417 218.612C610.391 218.612 607.937 216.159 607.937 213.132C607.937 210.105 610.39 207.652 613.417 207.652C616.443 207.652 618.897 210.105 618.897 213.132C618.897 216.159 616.444 218.612 613.417 218.612Z" fill="#0179FF"></path><path d="M650.222 228.16H648.076C647.882 227.313 647.548 226.522 647.1 225.808L648.619 224.289C648.826 224.082 648.826 223.746 648.619 223.539L646.931 221.851C646.724 221.644 646.388 221.644 646.181 221.851L644.662 223.37C643.948 222.922 643.156 222.588 642.31 222.394V220.248C642.31 219.955 642.072 219.718 641.78 219.718H639.393C639.1 219.718 638.863 219.955 638.863 220.248V222.394C638.016 222.588 637.225 222.922 636.511 223.37L634.992 221.851C634.785 221.644 634.449 221.644 634.242 221.851L632.554 223.539C632.347 223.746 632.347 224.082 632.554 224.289L634.073 225.808C633.625 226.522 633.291 227.314 633.097 228.16H630.951C630.658 228.16 630.42 228.398 630.42 228.69V231.077C630.42 231.37 630.658 231.607 630.951 231.607H633.097C633.291 232.454 633.625 233.245 634.073 233.959L632.554 235.478C632.347 235.685 632.347 236.021 632.554 236.228L634.242 237.916C634.449 238.123 634.785 238.123 634.992 237.916L636.511 236.397C637.225 236.845 638.016 237.179 638.863 237.373V239.519C638.863 239.812 639.1 240.049 639.393 240.049H641.78C642.073 240.049 642.31 239.812 642.31 239.519V237.373C643.157 237.179 643.948 236.845 644.662 236.397L646.181 237.916C646.388 238.123 646.724 238.123 646.931 237.916L648.619 236.228C648.826 236.021 648.826 235.685 648.619 235.478L647.1 233.959C647.548 233.245 647.882 232.454 648.076 231.607H650.222C650.515 231.607 650.752 231.37 650.752 231.077V228.69C650.753 228.398 650.516 228.16 650.222 228.16ZM640.586 233.178C638.767 233.178 637.293 231.703 637.293 229.885C637.293 228.066 638.767 226.592 640.586 226.592C642.405 226.592 643.879 228.067 643.879 229.885C643.88 231.703 642.405 233.178 640.586 233.178Z" fill="#DBE9FF"></path><path d="M640.586 225.3C638.054 225.3 636.002 227.353 636.002 229.885C636.002 232.417 638.055 234.469 640.586 234.469C643.118 234.469 645.171 232.417 645.171 229.885C645.171 227.352 643.118 225.3 640.586 225.3ZM640.586 232.684C639.04 232.684 637.787 231.431 637.787 229.885C637.787 228.339 639.04 227.086 640.586 227.086C642.132 227.086 643.385 228.339 643.385 229.885C643.386 231.43 642.133 232.684 640.586 232.684Z" fill="#0179FF"></path><path d="M447.658 138.355C469.068 129.745 479.445 105.409 470.835 83.9994C462.225 62.5894 437.89 52.2127 416.48 60.8224C395.07 69.4321 384.693 93.7679 393.303 115.178C401.912 136.588 426.248 146.965 447.658 138.355Z" fill="#E67471"></path><path d="M411.328 121.053H452.8C454.625 121.053 456.104 119.574 456.104 117.749V83.2459C456.104 81.4209 454.625 79.9419 452.8 79.9419H411.328C409.504 79.9419 408.025 81.4209 408.025 83.2459V117.75C408.025 119.574 409.504 121.053 411.328 121.053Z" fill="white"></path><path d="M408.025 88.5459H456.104V83.2459C456.104 81.4209 454.625 79.9419 452.8 79.9419H411.328C409.504 79.9419 408.025 81.4209 408.025 83.2459V88.5459Z" fill="#0179FF"></path><path d="M444.619 81.7769C445.157 81.7769 445.594 81.3399 445.594 80.8019V79.0829C445.594 78.5449 445.157 78.1079 444.619 78.1079C444.081 78.1079 443.644 78.5449 443.644 79.0829V80.8019C443.644 81.3399 444.08 81.7769 444.619 81.7769Z" fill="white"></path><path d="M447.406 81.7769C447.945 81.7769 448.381 81.3399 448.381 80.8019V79.0829C448.381 78.5449 447.945 78.1079 447.406 78.1079C446.868 78.1079 446.431 78.5449 446.431 79.0829V80.8019C446.431 81.3399 446.867 81.7769 447.406 81.7769Z" fill="white"></path><path d="M416.722 81.7769C417.261 81.7769 417.697 81.3399 417.697 80.8019V79.0829C417.697 78.5449 417.261 78.1079 416.722 78.1079C416.184 78.1079 415.747 78.5449 415.747 79.0829V80.8019C415.747 81.3399 416.184 81.7769 416.722 81.7769Z" fill="white"></path><path d="M419.509 81.7769C420.047 81.7769 420.484 81.3399 420.484 80.8019V79.0829C420.484 78.5449 420.048 78.1079 419.509 78.1079C418.97 78.1079 418.534 78.5449 418.534 79.0829V80.8019C418.534 81.3399 418.971 81.7769 419.509 81.7769Z" fill="white"></path><path d="M435.098 97.8259H437.678C438.116 97.8259 438.471 97.4709 438.471 97.0329V94.4539C438.471 94.0159 438.116 93.6609 437.678 93.6609H435.098C434.66 93.6609 434.305 94.0159 434.305 94.4539V97.0329C434.305 97.4719 434.66 97.8259 435.098 97.8259Z" fill="#DBE9FF"></path><path d="M425.187 97.8259H427.767C428.205 97.8259 428.56 97.4709 428.56 97.0329V94.4529C428.56 94.0149 428.205 93.6599 427.767 93.6599H425.188C424.75 93.6599 424.395 94.0149 424.395 94.4529V97.0329C424.395 97.4719 424.749 97.8259 425.187 97.8259Z" fill="#DBE9FF"></path><path d="M415.277 97.8259H417.857C418.295 97.8259 418.65 97.4709 418.65 97.0329V94.4529C418.65 94.0149 418.295 93.6599 417.857 93.6599H415.277C414.839 93.6599 414.484 94.0149 414.484 94.4529V97.0329C414.484 97.4719 414.839 97.8259 415.277 97.8259Z" fill="#DBE9FF"></path><path d="M445.009 106.361H447.589C448.027 106.361 448.382 106.006 448.382 105.568V102.988C448.382 102.55 448.027 102.195 447.589 102.195H445.01C444.572 102.195 444.217 102.55 444.217 102.988V105.567C444.216 106.006 444.571 106.361 445.009 106.361Z" fill="#DBE9FF"></path><path d="M435.098 106.361H437.678C438.116 106.361 438.471 106.006 438.471 105.568V102.988C438.471 102.55 438.116 102.195 437.678 102.195H435.098C434.66 102.195 434.305 102.55 434.305 102.988V105.567C434.305 106.006 434.66 106.361 435.098 106.361Z" fill="#DBE9FF"></path><path d="M425.187 106.361H427.766C428.204 106.361 428.559 106.006 428.559 105.568V102.988C428.559 102.55 428.204 102.195 427.766 102.195H425.186C424.748 102.195 424.393 102.55 424.393 102.988V105.568C424.395 106.006 424.749 106.361 425.187 106.361Z" fill="#DBE9FF"></path><path d="M415.277 106.361H417.857C418.295 106.361 418.65 106.006 418.65 105.568V102.988C418.65 102.55 418.295 102.195 417.857 102.195H415.277C414.839 102.195 414.484 102.55 414.484 102.988V105.568C414.484 106.006 414.839 106.361 415.277 106.361Z" fill="#DBE9FF"></path><path d="M445.009 114.895H447.589C448.027 114.895 448.382 114.54 448.382 114.102V111.522C448.382 111.084 448.027 110.729 447.589 110.729H445.01C444.572 110.729 444.217 111.084 444.217 111.522V114.102C444.216 114.54 444.571 114.895 445.009 114.895Z" fill="#DBE9FF"></path><path d="M435.098 114.895H437.678C438.116 114.895 438.471 114.54 438.471 114.102V111.522C438.471 111.084 438.116 110.729 437.678 110.729H435.098C434.66 110.729 434.305 111.084 434.305 111.522V114.102C434.305 114.54 434.66 114.895 435.098 114.895Z" fill="#DBE9FF"></path><path d="M425.187 114.895H427.766C428.204 114.895 428.559 114.54 428.559 114.102V111.522C428.559 111.084 428.204 110.729 427.766 110.729H425.187C424.749 110.729 424.394 111.084 424.394 111.522V114.102C424.395 114.54 424.749 114.895 425.187 114.895Z" fill="#DBE9FF"></path><path d="M581.215 150.601C597.532 134.284 597.532 107.828 581.215 91.5111C564.898 75.194 538.442 75.194 522.125 91.5112C505.808 107.828 505.808 134.284 522.125 150.601C538.442 166.918 564.898 166.918 581.215 150.601Z" fill="#E67471"></path><path d="M571.906 141.292C583.082 130.116 583.082 111.996 571.906 100.82C560.73 89.6442 542.61 89.6442 531.434 100.82C520.258 111.996 520.258 130.116 531.434 141.292C542.61 152.468 560.73 152.468 571.906 141.292Z" fill="white"></path><path d="M551.675 92.4351C535.87 92.4351 523.057 105.248 523.057 121.053C523.057 136.858 535.87 149.671 551.675 149.671C567.48 149.671 580.293 136.858 580.293 121.053C580.293 105.248 567.48 92.4351 551.675 92.4351ZM554.074 145.436V141.528C554.074 140.801 553.485 140.212 552.758 140.212H550.59C549.863 140.212 549.274 140.801 549.274 141.528V145.436C537.659 144.307 528.42 135.068 527.291 123.453H531.199C531.926 123.453 532.515 122.864 532.515 122.137V119.97C532.515 119.243 531.926 118.654 531.199 118.654H527.291C528.42 107.039 537.659 97.8001 549.274 96.6711V100.579C549.274 101.306 549.863 101.895 550.59 101.895H552.758C553.485 101.895 554.074 101.306 554.074 100.579V96.6711C565.689 97.8001 574.928 107.039 576.057 118.654H572.149C571.422 118.654 570.833 119.243 570.833 119.97V122.137C570.833 122.864 571.422 123.453 572.149 123.453H576.057C574.928 135.068 565.689 144.307 554.074 145.436Z" fill="#0179FF"></path><path d="M539.32 127.415V126.107L544.232 120.73C544.808 120.101 545.283 119.553 545.656 119.088C546.029 118.618 546.305 118.178 546.484 117.766C546.668 117.349 546.76 116.914 546.76 116.458C546.76 115.935 546.634 115.482 546.382 115.1C546.135 114.717 545.796 114.421 545.365 114.213C544.934 114.005 544.449 113.901 543.912 113.901C543.34 113.901 542.841 114.019 542.415 114.257C541.994 114.489 541.667 114.816 541.434 115.238C541.207 115.659 541.093 116.153 541.093 116.72H539.378C539.378 115.848 539.579 115.083 539.981 114.424C540.383 113.765 540.931 113.252 541.623 112.884C542.321 112.515 543.103 112.331 543.97 112.331C544.842 112.331 545.614 112.515 546.288 112.884C546.961 113.252 547.489 113.748 547.872 114.373C548.254 114.998 548.446 115.693 548.446 116.458C548.446 117.006 548.346 117.541 548.148 118.064C547.954 118.582 547.615 119.161 547.13 119.8C546.651 120.435 545.985 121.21 545.132 122.125L541.79 125.7V125.816H548.707V127.415H539.32ZM551.039 124.363V122.881L557.578 112.535H558.654V114.831H557.927L552.986 122.648V122.765H561.792V124.363H551.039ZM558.043 127.415V123.913V123.222V112.535H559.758V127.415H558.043ZM569.804 111.837L565.009 129.652H563.44L568.235 111.837H569.804ZM572.273 127.415L578.928 114.249V114.133H571.255V112.535H580.788V114.22L574.162 127.415H572.273Z" fill="#D1C8D9"></path></g><defs><clipPath id="clip0_205_4"><rect width="750" height="500" fill="white"></rect></clipPath></defs></svg> 