<?xml version="1.0" encoding="UTF-8"?> <svg xmlns="http://www.w3.org/2000/svg" width="250" height="250" viewBox="0 0 250 250" fill="none"><rect width="250" height="250" rx="21" fill="#0179FF"></rect><path d="M46.3706 33.03H70.7906V113H46.3706V33.03ZM152.267 52.61H118.827V33.03H210.127V52.61H176.687V113H152.267V52.61ZM38.314 142.03H62.734V222H38.314V142.03ZM148.5 222.99C142.34 222.99 137.06 222.77 132.77 222.11C128.48 221.56 125.07 220.46 122.43 218.92C119.79 217.38 117.81 215.29 116.71 212.54C115.5 209.79 114.95 206.16 114.95 201.76C114.95 200.88 115.06 198.68 115.28 195.38H139.37V196.81C139.37 198.57 139.48 199.89 139.92 200.88C140.36 201.87 141.02 202.64 141.9 203.19C142.78 203.74 143.88 204.07 145.42 204.29C146.85 204.51 148.61 204.51 150.81 204.51H181.5C184.36 204.51 186.56 204.07 187.88 203.08C189.2 202.09 189.86 200.33 189.86 197.91C189.86 196.48 189.53 195.27 189.09 194.39C188.65 193.51 187.88 192.85 186.89 192.41C185.9 191.97 184.69 191.64 183.26 191.42C181.72 191.2 180.07 191.09 178.09 190.98L139.7 189.77C135.08 189.66 131.12 189.22 128.04 188.45C124.85 187.68 122.32 186.36 120.45 184.6C118.47 182.84 117.15 180.42 116.38 177.34C115.5 174.37 115.17 170.52 115.17 165.9C115.17 161.5 115.5 157.87 116.38 154.79C117.26 151.82 118.69 149.29 120.78 147.2C123.64 144.45 127.38 142.69 131.89 142.03C136.29 141.37 141.79 141.04 148.28 141.04H185.57C194.59 141.04 201.19 142.69 205.37 145.99C209.55 149.29 211.64 154.79 211.64 162.49C211.64 163.15 211.53 163.92 211.53 164.58C211.53 165.35 211.42 166.12 211.42 166.89H187.88V166.56C187.88 161.28 185.13 158.64 179.85 158.64H151.69C147.84 158.64 144.98 159.08 143 159.74C141.02 160.4 140.14 162.16 140.14 164.91C140.14 167.44 140.8 169.09 142.34 169.97C143.88 170.85 146.3 171.4 149.71 171.51L189.86 172.5C194.48 172.72 198.33 173.27 201.52 174.15C204.6 175.14 207.24 176.68 209.22 178.66C211.2 180.75 212.63 183.39 213.51 186.58C214.39 189.88 214.83 193.84 214.83 198.46C214.83 203.52 214.17 207.7 212.96 210.89C211.75 214.19 209.33 216.94 205.81 219.14C203.28 220.79 199.98 221.89 195.91 222.33C191.84 222.77 186.89 222.99 181.06 222.99H148.5Z" fill="white"></path></svg> 